<svg id="Layer_1" data-name="Layer 1" xmlns="http://www.w3.org/2000/svg" width="90px" height="90px" viewBox="0 0 612 792">
  <defs>
    <style>
      .cls-1 {
        fill: #e44d26;
      }

      .cls-2 {
        fill: #f16529;
      }

      .cls-3 {
        fill: #ebebeb;
      }

      .cls-4 {
        fill: #fff;
      }
    </style>
  </defs>
  <polygon class="cls-1" points="128.67 652.85 89.21 210.27 522.79 210.27 483.29 652.77 305.73 702 128.67 652.85"/>
  <polygon class="cls-2" points="306 664.38 449.47 624.6 483.23 246.46 306 246.46 306 664.38"/>
  <polygon class="cls-3" points="306 410.6 234.17 410.6 229.21 355.02 306 355.02 306 300.74 305.81 300.74 169.89 300.74 171.19 315.3 184.53 464.88 306 464.88 306 410.6"/>
  <polygon class="cls-3" points="306 551.57 305.76 551.64 245.31 535.31 241.44 492.02 212.07 492.02 186.96 492.02 194.56 577.25 305.75 608.12 306 608.05 306 551.57"/>
  <!-- <path d="M129.55,90h27.58v27.25h25.24V90H210v82.53H182.37V144.89H157.14v27.64H129.55V90Z"/>
  <path d="M246.23,117.37H221.94V90h76.17v27.37h-24.3v55.16H246.23V117.37Z"/>
  <path d="M310.2,90H339l17.69,29,17.68-29H403.1v82.53H375.63V131.62l-19,29.35h-.47l-19-29.35v40.91h-27Z"/>
  <path d="M416.83,90h27.59v55.25h38.79v27.28H416.83Z"/> -->
  <polygon class="cls-4" points="305.81 410.6 305.81 464.88 372.65 464.88 366.35 535.28 305.81 551.62 305.81 608.09 417.09 577.25 417.9 568.08 430.66 425.18 431.98 410.6 417.36 410.6 305.81 410.6"/>
  <polygon class="cls-4" points="305.81 300.74 305.81 334.45 305.81 354.89 305.81 355.02 436.75 355.02 436.75 355.02 436.92 355.02 438.01 342.82 440.49 315.3 441.78 300.74 305.81 300.74"/>
</svg>
